<svg xmlns="http://www.w3.org/2000/svg" viewBox="0 0 520 260" role="img" aria-labelledby="title desc">
  <title id="title">Mini Farmacia</title>
  <desc id="desc">Logotipo Mini Farmacia con capsula azul y roja.</desc>
  <defs>
    <linearGradient id="blue" x1="80" x2="180" y1="26" y2="148" gradientUnits="userSpaceOnUse">
      <stop stop-color="#0a7bff"/>
      <stop offset="1" stop-color="#123ed8"/>
    </linearGradient>
    <linearGradient id="red" x1="94" x2="190" y1="117" y2="222" gradientUnits="userSpaceOnUse">
      <stop stop-color="#ff5876"/>
      <stop offset="1" stop-color="#ef0b36"/>
    </linearGradient>
  </defs>
  <rect width="520" height="260" rx="48" fill="#fff"/>
  <g transform="translate(35 16) rotate(-8 95 110)">
    <rect x="35" y="8" width="128" height="214" rx="64" fill="url(#blue)"/>
    <path d="M35 116h128v42c0 35-29 64-64 64s-64-29-64-64v-42Z" fill="url(#red)"/>
    <path d="M44 115h110" stroke="#fff" stroke-width="14" stroke-linecap="round"/>
    <circle cx="84" cy="64" r="9" fill="#fff"/>
    <circle cx="122" cy="61" r="8" fill="#072b78" opacity=".62"/>
    <path d="M80 96c14 12 34 10 48-4" fill="none" stroke="#072b78" stroke-width="7" stroke-linecap="round"/>
  </g>
  <g font-family="Arial Black, Arial, sans-serif" font-weight="900">
    <text x="164" y="114" fill="#123ed8" font-size="74" letter-spacing="-4">MINI</text>
    <text x="165" y="169" fill="#123ed8" font-size="43" letter-spacing="-1">FARMACIA</text>
    <rect x="168" y="184" width="236" height="11" rx="5.5" fill="#ef0b36"/>
  </g>
</svg>
